<svg viewBox="0 0 26 21" fill="none" xmlns="http://www.w3.org/2000/svg">
<path d="M1 3.625C1 2.92881 1.28095 2.26113 1.78105 1.76884C2.28115 1.27656 2.95942 1 3.66667 1H22.3333C23.0406 1 23.7189 1.27656 24.219 1.76884C24.719 2.26113 25 2.92881 25 3.625V16.75C25 17.4462 24.719 18.1139 24.219 18.6062C23.7189 19.0984 23.0406 19.375 22.3333 19.375H3.66667C2.95942 19.375 2.28115 19.0984 1.78105 18.6062C1.28095 18.1139 1 17.4462 1 16.75V3.625Z" stroke="#5D67C8" stroke-width="2" stroke-linecap="round" stroke-linejoin="round"/>
<path d="M1 3.625L13 11.5L25 3.625" stroke="#5D67C8" stroke-width="2" stroke-linecap="round" stroke-linejoin="round"/>
</svg>
