<svg viewBox="0 0 36 36" fill="none" xmlns="http://www.w3.org/2000/svg">
<path d="M3.41154 9.57735L18 1.1547L32.5885 9.57735V26.4226L18 34.8453L3.41154 26.4226V9.57735Z" stroke="#5D67C8" stroke-width="2"/>
<path d="M18 24.75C16.125 24.75 14.5312 24.0938 13.2188 22.7812C11.9062 21.4688 11.25 19.875 11.25 18C11.25 16.125 11.9062 14.5312 13.2188 13.2188C14.5312 11.9062 16.125 11.25 18 11.25C18.175 11.25 18.347 11.2563 18.516 11.2688C18.685 11.2813 18.8505 11.3 19.0125 11.325C18.5 11.6875 18.0905 12.1595 17.784 12.741C17.4775 13.3225 17.3245 13.9505 17.325 14.625C17.325 15.75 17.7188 16.7062 18.5063 17.4937C19.2938 18.2812 20.25 18.675 21.375 18.675C22.0625 18.675 22.6937 18.5217 23.2687 18.2153C23.8437 17.9088 24.3125 17.4995 24.675 16.9875C24.7 17.15 24.7188 17.3155 24.7313 17.484C24.7438 17.6525 24.75 17.8245 24.75 18C24.75 19.875 24.0938 21.4688 22.7812 22.7812C21.4688 24.0938 19.875 24.75 18 24.75Z" fill="#5D67C8"/>
</svg>
