<svg width="24" height="24" viewBox="0 0 24 24" fill="none" xmlns="http://www.w3.org/2000/svg">
<g clip-path="url(#clip0_84_12990)">
<path d="M23.63 4.66683C23.168 3.87283 22.318 3.3335 21.3333 3.3335H12V4.66683H23.63ZM0 16.6668H24V18.0002H0V16.6668ZM12 11.3335H24V12.6668H12V11.3335ZM12 8.66683H24V10.0002H12V8.66683ZM0 14.0002H24V15.3335H0V14.0002ZM2.66667 20.6668H21.3333C22.318 20.6668 23.168 20.1275 23.63 19.3335H0.37C0.832 20.1275 1.682 20.6668 2.66667 20.6668ZM12 6.00016H24V7.3335H12V6.00016Z" fill="#B22334"/>
<path d="M0.0453333 18.4525C0.0566667 18.5145 0.0693333 18.5765 0.0846667 18.6372C0.102 18.7045 0.123333 18.7692 0.146 18.8345C0.205333 19.0072 0.277333 19.1738 0.368 19.3298L0.37 19.3332H23.63L23.6313 19.3305C23.7208 19.1733 23.7949 19.0079 23.8527 18.8365C23.8966 18.7114 23.9305 18.583 23.954 18.4525C23.9813 18.3058 24 18.1552 24 17.9998H0C0 18.1552 0.0186667 18.3052 0.0453333 18.4525ZM0 15.3332H24V16.6665H0V15.3332ZM0 12.6665V13.9998H24V12.6665H12H0ZM12 9.99984H24V11.3332H12V9.99984ZM12 7.33317H24V8.6665H12V7.33317ZM0.0853333 5.3625C0.102 5.2945 0.125333 5.22984 0.146667 5.1645C0.123515 5.22963 0.103054 5.29569 0.0853333 5.3625ZM12 5.99984H24C24 5.8445 23.9813 5.69384 23.954 5.5465C23.9307 5.41591 23.8965 5.28747 23.852 5.1625C23.7942 4.99038 23.7199 4.82427 23.63 4.6665H12V5.99984Z" fill="#EEEEEE"/>
<path d="M12 3.3335H2.66667C1.95942 3.3335 1.28115 3.61445 0.781049 4.11454C0.280952 4.61464 0 5.29292 0 6.00016L0 12.6668H12V3.3335Z" fill="#3C3B6E"/>
<path d="M1.334 5.1505L1.746 5.44984L1.58867 5.93317L2 5.6345L2.412 5.93317L2.25467 5.44984L2.66667 5.1505H2.15733L2 4.6665L1.84333 5.1505H1.334ZM2.66733 6.48384L3.07933 6.78317L2.922 7.2665L3.33333 6.96784L3.74533 7.2665L3.588 6.78317L4 6.48384H3.49067L3.33333 5.99984L3.17667 6.48384H2.66733ZM5.334 6.48384L5.746 6.78317L5.58867 7.2665L6 6.96784L6.412 7.2665L6.25467 6.78317L6.66667 6.48384H6.15733L6 5.99984L5.84333 6.48384H5.334ZM8.00067 6.48384L8.41267 6.78317L8.25533 7.2665L8.66667 6.96784L9.07867 7.2665L8.92133 6.78317L9.33333 6.48384H8.824L8.66667 5.99984L8.51 6.48384H8.00067ZM2.66733 9.1505L3.07933 9.44984L2.922 9.93317L3.33333 9.6345L3.74533 9.93317L3.588 9.44984L4 9.1505H3.49067L3.33333 8.6665L3.17667 9.1505H2.66733ZM5.334 9.1505L5.746 9.44984L5.58867 9.93317L6 9.6345L6.412 9.93317L6.25467 9.44984L6.66667 9.1505H6.15733L6 8.6665L5.84333 9.1505H5.334ZM8.00067 9.1505L8.41267 9.44984L8.25533 9.93317L8.66667 9.6345L9.07867 9.93317L8.92133 9.44984L9.33333 9.1505H8.824L8.66667 8.6665L8.51 9.1505H8.00067ZM4.00067 5.1505L4.41267 5.44984L4.25533 5.93317L4.66667 5.6345L5.07867 5.93317L4.92133 5.44984L5.33333 5.1505H4.824L4.66667 4.6665L4.51 5.1505H4.00067ZM6.66733 5.1505L7.07933 5.44984L6.922 5.93317L7.33333 5.6345L7.74533 5.93317L7.588 5.44984L8 5.1505H7.49067L7.33333 4.6665L7.17667 5.1505H6.66733ZM9.334 5.1505L9.746 5.44984L9.58867 5.93317L10 5.6345L10.412 5.93317L10.2547 5.44984L10.6667 5.1505H10.1573L10 4.6665L9.84333 5.1505H9.334ZM1.334 7.81717L1.746 8.1165L1.58867 8.59984L2 8.30117L2.412 8.59984L2.25467 8.1165L2.66667 7.81717H2.15733L2 7.33317L1.84333 7.81717H1.334ZM4.25533 8.59984L4.66667 8.30117L5.07867 8.59984L4.92133 8.1165L5.33333 7.81717H4.824L4.66667 7.33317L4.51 7.81717H4.00067L4.41267 8.1165L4.25533 8.59984ZM6.66733 7.81717L7.07933 8.1165L6.922 8.59984L7.33333 8.30117L7.74533 8.59984L7.588 8.1165L8 7.81717H7.49067L7.33333 7.33317L7.17667 7.81717H6.66733ZM9.334 7.81717L9.746 8.1165L9.58867 8.59984L10 8.30117L10.412 8.59984L10.2547 8.1165L10.6667 7.81717H10.1573L10 7.33317L9.84333 7.81717H9.334ZM1.334 10.4838L1.746 10.7832L1.58867 11.2665L2 10.9678L2.412 11.2665L2.25467 10.7832L2.66667 10.4838H2.15733L2 9.99984L1.84333 10.4838H1.334ZM4.25533 11.2665L4.66667 10.9678L5.07867 11.2665L4.92133 10.7832L5.33333 10.4838H4.824L4.66667 9.99984L4.51 10.4838H4.00067L4.41267 10.7832L4.25533 11.2665ZM6.66733 10.4838L7.07933 10.7832L6.922 11.2665L7.33333 10.9678L7.74533 11.2665L7.588 10.7832L8 10.4838H7.49067L7.33333 9.99984L7.17667 10.4838H6.66733ZM9.334 10.4838L9.746 10.7832L9.58867 11.2665L10 10.9678L10.412 11.2665L10.2547 10.7832L10.6667 10.4838H10.1573L10 9.99984L9.84333 10.4838H9.334Z" fill="white"/>
</g>
<defs>
<clipPath id="clip0_84_12990">
<rect width="24" height="24" fill="white"/>
</clipPath>
</defs>
</svg>
